<svg xmlns="http://www.w3.org/2000/svg" viewBox="0 0 309 295" role="img" aria-labelledby="title">
  <title id="title">CyberSim turtle</title>
  <defs>
    <linearGradient id="turtle-gradient" x1="238" y1="290" x2="79" y2="42" gradientUnits="userSpaceOnUse">
      <stop offset="0" stop-color="#5745f2"/>
      <stop offset="1" stop-color="#27cffc"/>
    </linearGradient>
  </defs>
  <path fill="url(#turtle-gradient)" d="M247.06 101.8a47.93 47.93 0 0 0-36.19-36.06L185.63 60V31.36a31.35 31.35 0 1 0-62.69 0V60L97.75 65.74a47.91 47.91 0 0 0-36.21 36.06A74.77 74.77 0 0 0 0 149.49h60.28v11.56A106.24 106.24 0 0 0 82 225.24a74.77 74.77 0 0 0-4 68.91l39.08-39.08 29.18 16.68a38 38 0 0 0 4.89 10.42l3.15 4.76 3.18-4.76a38.87 38.87 0 0 0 4.88-10.42l30.1-17.23 39.66 39.63a74.89 74.89 0 0 0-4.65-70 106.23 106.23 0 0 0 20.88-63.06v-11.56h60.25a74.81 74.81 0 0 0-61.54-47.69Zm-68.34 41.94a3.55 3.55 0 1 1-7.09 0 3.55 3.55 0 0 1 7.09 0Zm-68.52 33.67a3.55 3.55 0 1 1 3.55-3.55 3.56 3.56 0 0 1-3.55 3.55Zm104.58 31.23a79.65 79.65 0 0 1-4.83 6.64l-.6-.6a5.26 5.26 0 0 0-3.71-1.53h-46.27a12.82 12.82 0 1 0 0 10.51h42.91a85.73 85.73 0 0 1-17 12.74l-7 4-24 13.74-23.09-13.22-7.9-4.51a89.27 89.27 0 0 1-7.86-5.07v-45.8A12.71 12.71 0 0 0 123 173.86a12.83 12.83 0 1 0-18 11.67v36.79a87 87 0 0 1-25.4-61.27v-19.54h43.26l15.31 15.31v28.28a5.27 5.27 0 0 0 5.25 5.26h18.2a12.86 12.86 0 1 0-.86-10.51h-12.13v-25.21a5.29 5.29 0 0 0-1.53-3.7l-18.41-18.39A5.15 5.15 0 0 0 125 131H79.55v-18.25a27.76 27.76 0 0 1 .42-4.94 4.32 4.32 0 0 0 .79.08H127a12.82 12.82 0 1 0 0-10.5H84a28.63 28.63 0 0 1 18.1-12.85l52.24-12 21.67 5-4.52 4.51a5.29 5.29 0 0 0-1.52 3.71v46.27a12.72 12.72 0 0 0-7.6 11.69 12.85 12.85 0 1 0 18.1-11.69V88l7.64-7.65 18.49 4.23a28.72 28.72 0 0 1 18.18 13L205 117.19a5.4 5.4 0 0 0-1.55 3.73v48.69a5.27 5.27 0 0 0 1.55 3.7l18.36 18.36a87.08 87.08 0 0 1-8.58 16.97Zm-63.55 9.77a3.54 3.54 0 1 1-3.55-3.55 3.55 3.55 0 0 1 3.55 3.55Zm18-34.28a3.55 3.55 0 1 1 3.55 3.55 3.53 3.53 0 0 1-3.48-3.55Zm-34.06-81.49a3.55 3.55 0 1 1 3.54 3.54 3.55 3.55 0 0 1-3.53-3.54ZM229 161.05a86.93 86.93 0 0 1-2.18 19.25L214 167.43V123.1l14.74-14.74a30 30 0 0 1 .26 4.39Z"/>
</svg>
